<svg width="580" height="400" xmlns="http://www.w3.org/2000/svg">
 <!-- Created with Method Draw - http://github.com/duopixel/Method-Draw/ -->

 <g>
  <title>background</title>
  <rect x="-1" y="-1" width="2.547465" height="2.377562" id="canvas_background" fill="#fff"/>
  <g id="canvasGrid" display="none">
   <rect id="svg_1" width="100%" height="100%" x="0" y="0" stroke-width="0" fill="url(#gridpattern)"/>
  </g>
 </g>
 <g>
  <title>Layer 1</title>
  <g stroke="null" id="svg_23" transform="rotate(89.93388366699219 290.4996643066406,199.9941558837891) ">
   <g stroke="null" id="svg_5" transform="matrix(2.60700077476694,0,0,1.4923248479619795,-5695.789868597728,-2685.7816165765335) ">
    <g stroke="null" id="svg_6">
     <path stroke="null" d="m2348.458057,2036.385081c0,-0.64 0,-1.28 0,-1.92l0,-201.44c0,-0.64 0,-1.28 0,-1.92c13.497,-0.325 24.281,-11.339 24.32,-24.84l-0.04,0c-0.022,-13.716 -11.124,-24.836 -24.84,-24.88l-2.92,0c-4.66,-27.106 -30.411,-45.302 -57.518,-40.642c-20.787,3.574 -37.069,19.855 -40.642,40.642l-2.92,0c-13.736,0.374 -24.568,11.812 -24.194,25.548c0.354,12.994 10.651,23.526 23.634,24.172c0,0.64 0,1.28 0,1.92l0,201.44c0,0.64 0,1.28 0,1.92c-13.724,0.683 -24.295,12.363 -23.612,26.087c0.647,12.982 11.178,23.279 24.172,23.633l2.92,0c4.66,27.106 30.411,45.302 57.518,40.642c20.787,-3.574 37.069,-19.855 40.642,-40.642l2.92,0c13.736,-0.374 24.568,-11.812 24.194,-25.548c-0.354,-12.994 -10.651,-23.525 -23.634,-24.172zm-75.8,-269.76l0.08,0c12.847,-12.834 33.665,-12.824 46.499,0.023c4.077,4.081 7.009,9.164 8.501,14.737l-63.6,0c1.492,-5.584 4.431,-10.675 8.52,-14.76zm-36.76,39.52c0,-4.418 3.582,-8 8,-8l104,0c4.417,0.104 7.913,3.769 7.809,8.186c-0.047,1.991 -0.835,3.893 -2.209,5.334l-0.04,0.16c-1.49,1.478 -3.501,2.311 -5.6,2.32l-103.96,0c-4.418,0 -8,-3.581 -8,-8zm24.36,170.84l0,-29.92l71.28,71.32l0,16c0.059,0.639 0.059,1.281 0,1.92l-11.92,0l-59.36,-59.32zm35.28,59.4l-35.12,0c-0.059,-0.639 -0.059,-1.281 0,-1.92l0,-33.52l35.12,35.44zm36,-145.88l0,29.96l-71.28,-71.36l0,-16c-0.059,-0.639 -0.059,-1.281 0,-1.92l11.76,0l59.52,59.32zm-35.44,-59.4l35.28,0c0.059,0.639 0.059,1.281 0,1.92l0,33.52l-35.28,-35.44zm35.44,113.28l0,50.04l-71.28,-71.32l0,-50.04l71.28,71.32zm-12.32,156.48c-12.847,12.834 -33.665,12.824 -46.499,-0.023c-4.077,-4.081 -7.009,-9.164 -8.501,-14.737l63.44,0c-1.492,5.584 -4.431,10.675 -8.52,14.76l0.08,0zm34.129,-33.927c-1.464,1.416 -3.413,2.22 -5.449,2.248l-104,0c-4.418,0 -8,-3.582 -8,-8s3.582,-8 8,-8l104,0c2.108,0.062 4.106,0.953 5.56,2.48l0.08,-0.04c3.071,3.176 2.986,8.24 -0.191,11.312z" id="svg_7"/>
    </g>
   </g>
   <g stroke="null" id="svg_8" transform="matrix(2.60700077476694,0,0,1.4923248479619795,-5695.789868597728,-2685.7816165765335) "/>
   <g stroke="null" id="svg_9" transform="matrix(2.60700077476694,0,0,1.4923248479619795,-5695.789868597728,-2685.7816165765335) "/>
   <g stroke="null" id="svg_10" transform="matrix(2.60700077476694,0,0,1.4923248479619795,-5695.789868597728,-2685.7816165765335) "/>
   <g stroke="null" id="svg_11" transform="matrix(2.60700077476694,0,0,1.4923248479619795,-5695.789868597728,-2685.7816165765335) "/>
   <g stroke="null" id="svg_12" transform="matrix(2.60700077476694,0,0,1.4923248479619795,-5695.789868597728,-2685.7816165765335) "/>
   <g stroke="null" id="svg_13" transform="matrix(2.60700077476694,0,0,1.4923248479619795,-5695.789868597728,-2685.7816165765335) "/>
   <g stroke="null" id="svg_14" transform="matrix(2.60700077476694,0,0,1.4923248479619795,-5695.789868597728,-2685.7816165765335) "/>
   <g stroke="null" id="svg_15" transform="matrix(2.60700077476694,0,0,1.4923248479619795,-5695.789868597728,-2685.7816165765335) "/>
   <g stroke="null" id="svg_16" transform="matrix(2.60700077476694,0,0,1.4923248479619795,-5695.789868597728,-2685.7816165765335) "/>
   <g stroke="null" id="svg_17" transform="matrix(2.60700077476694,0,0,1.4923248479619795,-5695.789868597728,-2685.7816165765335) "/>
   <g stroke="null" id="svg_18" transform="matrix(2.60700077476694,0,0,1.4923248479619795,-5695.789868597728,-2685.7816165765335) "/>
   <g stroke="null" id="svg_19" transform="matrix(2.60700077476694,0,0,1.4923248479619795,-5695.789868597728,-2685.7816165765335) "/>
   <g stroke="null" id="svg_20" transform="matrix(2.60700077476694,0,0,1.4923248479619795,-5695.789868597728,-2685.7816165765335) "/>
   <g stroke="null" id="svg_21" transform="matrix(2.60700077476694,0,0,1.4923248479619795,-5695.789868597728,-2685.7816165765335) "/>
   <g stroke="null" id="svg_22" transform="matrix(2.60700077476694,0,0,1.4923248479619795,-5695.789868597728,-2685.7816165765335) "/>
  </g>
 </g>
</svg>