<svg id="Layer_1" enable-background="new 0 0 512 512" height="512" viewBox="0 0 512 512" width="512" xmlns="http://www.w3.org/2000/svg"><g><path d="m465.465 96.271-.431.139c7.726-13.732 11.592-29.879 11.524-48.254-.053-10.657-6.377-20.322-16.111-24.622-9.72-4.298-21.111-2.485-29.052 4.636-16.818 15.148-30.316 17.709-65.827-7.146-20.205-14.147-40.267-21.024-61.336-21.024-21.374 0-37.479 8.757-48.232 16.541-10.753-7.784-26.858-16.541-48.232-16.541-20.799 0-40.634 6.727-60.636 20.561-36.275 25.077-49.843 22.612-66.528 7.608-7.944-7.153-19.374-8.962-29.052-4.633-9.733 4.301-16.057 13.965-16.109 24.639-.081 22.028 5.5 40.863 16.617 56.17-3.546 13.323-5.34 26.868-5.34 40.372 0 33.38 10.435 65.727 28.837 90.012-1.672 8.662-2.518 17.604-2.518 26.675 0 44.854 21.813 85.568 55.078 104.352 2.806 19.523 9.314 38.189 19.028 54.426 11.65 19.475 27.36 34.474 45.421 43.37 11.575 5.712 28.974 15.852 46.348 37.859 5.313 6.73 12.995 10.59 21.077 10.59 8.084 0 15.768-3.86 21.077-10.59 13.242-16.775 27.302-28.287 45.598-37.332 18.076-8.957 33.838-24.011 45.582-43.533 9.806-16.3 16.45-35.071 19.419-54.73 32.858-18.627 54.398-59.357 54.398-104.411 0-9.064-.844-17.998-2.514-26.654 18.957-24.808 29.71-57.179 29.71-90.032.001-16.115-2.622-32.415-7.796-48.448zm-353.418-27.255c15.074-1.821 30.669-8.932 52.146-23.779 15.03-10.395 28.875-15.237 43.575-15.237 16.839 0 28.728 8.856 38.55 17.157 5.59 4.725 13.775 4.725 19.365 0 9.822-8.301 21.711-17.157 38.549-17.157 14.908 0 28.93 4.956 44.13 15.6 21.211 14.846 36.661 21.931 51.663 23.69 16.31 1.913 31.527-2.845 46.335-14.513-1.057 15.93-6.363 28.506-16.129 38.308-18.179 18.246-52.457 27.497-101.883 27.497-26.918 0-49.244-6.122-62.863-17.239-2.761-2.253-6.123-3.38-9.485-3.38s-6.725 1.127-9.485 3.38c-13.619 11.117-35.945 17.239-62.863 17.239-49.422 0-83.7-9.253-101.882-27.502-9.771-9.808-15.079-22.392-16.132-38.317 14.749 11.569 29.99 16.238 46.409 14.253zm192.736 80.1c-5.802 21.5-25.475 37.367-48.783 37.367s-42.98-15.867-48.783-37.367c18.861-2.43 35.516-7.835 48.783-15.867 13.267 8.032 29.922 13.437 48.783 15.867zm124.722 52.06c-8.244-10.623-19.625-18.739-32.826-22.907-7.902-2.496-16.326 1.889-18.82 9.787-2.494 7.899 1.888 16.326 9.787 18.82 12.585 3.974 22.181 14.43 25.046 27.291.023.103.047.206.072.308.006.023.011.047.017.07.006.024.011.047.017.071 2.168 8.549 3.267 17.562 3.267 26.787 0 28.073-10.927 54.351-27.97 70.054-5.482-13.894-15.535-25.841-28.827-33.532-7.168-4.149-16.347-1.7-20.495 5.472-4.148 7.17-1.699 16.347 5.472 20.495 11.237 6.502 18.288 18.499 18.52 31.431-3.776 36.759-23.12 68.842-49.407 81.868-21.329 10.544-37.926 23.755-53.369 42.564-20.313-24.664-40.517-36.382-54.155-43.112-26.26-12.935-45.344-44.791-48.747-81.281.219-12.947 7.273-24.962 18.521-31.47 7.171-4.148 9.62-13.325 5.472-20.495-4.149-7.172-13.326-9.618-20.495-5.472-13.318 7.706-23.384 19.685-28.859 33.615-17.471-15.761-28.687-42.106-28.687-70.137 0-9.226 1.099-18.238 3.267-26.787.006-.024.011-.047.017-.071.006-.023.011-.046.017-.07.025-.103.049-.205.072-.308 2.865-12.861 12.461-23.317 25.046-27.291 7.899-2.494 12.281-10.921 9.787-18.82s-10.921-12.281-18.82-9.787c-13.127 4.145-24.456 12.194-32.688 22.731-8.405-16.573-13.017-36.124-13.017-56.283 0-5.592.384-11.2 1.146-16.795 23.381 14.459 56.034 21.898 98.935 22.604 6.873 37.471 39.772 65.956 79.2 65.956s72.326-28.485 79.2-65.956c47.488-.782 82.417-9.81 106.114-27.475 1.295 7.247 1.948 14.49 1.948 21.665-.001 19.945-4.879 39.582-13.758 56.46z"/></g></svg>