<?xml version="1.0" encoding="iso-8859-1"?>
<!-- Generator: Adobe Illustrator 19.0.0, SVG Export Plug-In . SVG Version: 6.00 Build 0)  -->
<svg version="1.1" id="Layer_1" xmlns="http://www.w3.org/2000/svg" xmlns:xlink="http://www.w3.org/1999/xlink" x="0px" y="0px"
	 viewBox="0 0 512 512" style="enable-background:new 0 0 512 512;" xml:space="preserve">
<g>
	<g>
		<circle cx="256.58" cy="448.707" r="10.417"/>
	</g>
</g>
<g>
	<g>
		<path d="M264.988,323.921c-0.084-4.787-3.992-8.608-8.759-8.608c-0.053,0-0.106,0-0.159,0.001
			c-4.84,0.085-8.693,4.078-8.607,8.918l0.716,40.509c0.084,4.786,3.992,8.608,8.759,8.608c0.053,0,0.106,0,0.159-0.001
			c4.84-0.085,8.693-4.078,8.607-8.918L264.988,323.921z"/>
	</g>
</g>
<g>
	<g>
		<path d="M364.67,0c-4.841,0-8.764,3.923-8.764,8.764v33.107h-13.521V8.764c0-4.841-3.923-8.764-8.764-8.764
			s-8.764,3.923-8.764,8.764v33.107h-13.522V8.764c0-4.841-3.923-8.764-8.764-8.764s-8.764,3.923-8.764,8.764v33.107h-13.521V8.764
			c0-4.841-3.923-8.764-8.764-8.764s-8.764,3.923-8.764,8.764v33.107h-13.522V8.764c0-4.841-3.923-8.764-8.764-8.764
			s-8.764,3.923-8.764,8.764v33.107h-13.521V8.764c0-4.841-3.923-8.764-8.764-8.764s-8.764,3.923-8.764,8.764v33.107h-13.521V8.764
			c0-4.841-3.923-8.764-8.764-8.764s-8.764,3.923-8.764,8.764v33.107h-13.521V8.764c0-4.841-3.923-8.764-8.764-8.764
			s-8.764,3.923-8.764,8.764v41.871v95.244c0,25.634,18.683,46.974,43.145,51.153v240.14c0,41.261,33.569,74.829,74.829,74.829
			c41.262,0,74.83-33.569,74.83-74.829V196.837c23.931-4.613,42.066-25.704,42.066-50.96V50.635V8.764
			C373.434,3.923,369.511,0,364.67,0z M355.906,145.879c0,18.958-15.423,34.38-34.381,34.38h-91.234
			c-4.841,0-8.764,3.923-8.764,8.764c0,4.841,3.923,8.764,8.764,8.764h83.548v239.385c0,31.596-25.706,57.301-57.302,57.301
			s-57.301-25.705-57.301-57.301V189.022c0-4.841-3.923-8.764-8.764-8.764c-18.958,0-34.381-15.422-34.381-34.38v-86.48h199.815
			V145.879z"/>
	</g>
</g>
<g>
	<g>
		<path d="M303.632,79.824h-98.186c-11.132,0-20.191,9.057-20.191,20.189v29.581c0,11.134,9.058,20.191,20.191,20.191h98.186
			c11.132,0,20.191-9.057,20.191-20.191v-29.58C323.822,88.881,314.764,79.824,303.632,79.824z M306.295,129.596
			c0,1.469-1.194,2.663-2.663,2.663h-98.186c-1.469,0-2.663-1.194-2.663-2.663v-29.581c0-1.468,1.194-2.662,2.663-2.662h98.186
			c1.469,0,2.663,1.194,2.663,2.662V129.596z"/>
	</g>
</g>
<g>
	<g>
		<path d="M256.583,253.773c-19.329,0-35.055,15.726-35.055,35.055v78.29c0,19.329,15.726,35.055,35.055,35.055
			c19.329,0,35.055-15.726,35.055-35.055v-78.29C291.638,269.499,275.913,253.773,256.583,253.773z M274.111,367.118
			c0,9.665-7.863,17.528-17.528,17.528c-9.665,0-17.528-7.863-17.528-17.528v-78.29c0-9.665,7.863-17.528,17.528-17.528
			c9.665,0,17.528,7.863,17.528,17.528V367.118z"/>
	</g>
</g>
<g>
</g>
<g>
</g>
<g>
</g>
<g>
</g>
<g>
</g>
<g>
</g>
<g>
</g>
<g>
</g>
<g>
</g>
<g>
</g>
<g>
</g>
<g>
</g>
<g>
</g>
<g>
</g>
<g>
</g>
</svg>
