<?xml version="1.0" encoding="iso-8859-1"?>
<!-- Generator: Adobe Illustrator 19.0.0, SVG Export Plug-In . SVG Version: 6.00 Build 0)  -->
<svg version="1.1" id="Layer_1" xmlns="http://www.w3.org/2000/svg" xmlns:xlink="http://www.w3.org/1999/xlink" x="0px" y="0px"
	 viewBox="0 0 511.999 511.999" style="enable-background:new 0 0 511.999 511.999;" xml:space="preserve">
<g>
	<g>
		<path d="M392.852,1.829c-6.925-3.668-15.159-1.681-19.648,4.716L224.746,207.69L75.152,7.326
			c-4.523-6.373-12.767-8.315-19.67-4.612c-6.955,3.731-9.889,11.764-6.975,19.099c0.098,0.247,0.207,0.489,0.328,0.727
			l43.71,85.477c2.122,4.149,7.204,5.79,11.351,3.67c4.148-2.121,5.791-7.203,3.67-11.351L72.848,32.442l242.785,325.18
			c1.657,2.219,4.194,3.39,6.767,3.39c1.756,0,3.526-0.546,5.04-1.677c3.733-2.787,4.5-8.073,1.713-11.807l-56.117-75.162
			L399.6,21.618c0.119-0.237,0.228-0.48,0.325-0.727C402.801,13.54,399.826,5.524,392.852,1.829z M261.758,257.264l-26.469-35.451
			L375.627,31.672L261.758,257.264z"/>
	</g>
</g>
<g>
	<g>
		<path d="M393.617,412.922c-5.592-8.061-13.99-13.46-23.643-15.206c-9.654-1.747-19.41,0.373-27.47,5.967
			c-16.638,11.546-20.782,34.475-9.238,51.113c7.125,10.269,18.585,15.778,30.228,15.778c7.222,0,14.515-2.12,20.884-6.539
			C401.018,452.49,405.161,429.562,393.617,412.922z M374.762,450.175c-8.998,6.242-21.394,4.001-27.634-4.994
			c-6.242-8.997-4.002-21.394,4.994-27.635c3.363-2.333,7.27-3.547,11.278-3.547c1.187,0,2.382,0.107,3.573,0.322
			c5.22,0.944,9.76,3.862,12.783,8.221C385.998,431.537,383.757,443.934,374.762,450.175z"/>
	</g>
</g>
<g>
	<g>
		<path d="M123.416,427.863c-1.796-9.645-7.239-18.013-15.329-23.564c-8.089-5.549-17.854-7.618-27.501-5.822
			c-9.645,1.796-18.013,7.239-23.564,15.329c-11.457,16.7-7.193,39.607,9.508,51.064c6.187,4.245,13.356,6.453,20.701,6.453
			c2.257,0,4.533-0.208,6.8-0.631c9.645-1.796,18.013-7.239,23.563-15.329C123.144,447.274,125.211,437.508,123.416,427.863z
			 M103.681,445.819c-3,4.374-7.525,7.317-12.739,8.288c-5.214,0.971-10.495-0.147-14.868-3.148
			c-9.028-6.194-11.334-18.579-5.14-27.607c3.843-5.604,10.072-8.617,16.402-8.617c3.87,0,7.779,1.126,11.205,3.477
			c4.374,3.001,7.317,7.526,8.288,12.74C107.8,436.165,106.683,441.446,103.681,445.819z"/>
	</g>
</g>
<g>
	<g>
		<path d="M486.314,472.931c-4.381-5.749-11.048-9.251-18.295-9.609c-11.17-0.551-26.778-2.135-42.109-6.357
			c1.332-3.624,2.375-7.382,3.077-11.259c3.165-17.508-0.678-35.2-10.821-49.819c-17.548-25.291-49.879-35.219-78.619-24.146
			c-4.347,1.675-6.515,6.557-4.839,10.904c1.675,4.348,6.558,6.512,10.904,4.839c21.459-8.269,45.594-0.857,58.693,18.021
			c7.573,10.916,10.443,24.126,8.08,37.2c-0.94,5.204-2.677,10.131-5.102,14.663c-0.315,0.457-0.586,0.949-0.811,1.477
			c-3.614,6.232-8.583,11.648-14.678,15.877c-10.916,7.574-24.126,10.443-37.2,8.08c-13.074-2.363-24.443-9.675-32.017-20.59
			c-12.813-18.466-11.588-43.341,2.977-60.492c2.71-3.191,2.67-7.887-0.094-11.03l-91.945-104.576
			c-1.71-1.946-4.214-2.993-6.806-2.852l-2.537,0.142c-1.306-0.235-2.649-0.16-3.919,0.219l-18.432,1.03l-78.82-154.138
			c-2.121-4.148-7.205-5.79-11.351-3.67c-4.148,2.121-5.791,7.203-3.67,11.351l68.783,134.508l-72.06,97.63
			c-27.131-7.408-56.14,2.985-72.32,26.568c-20.778,30.285-13.044,71.828,17.242,92.607c11.492,7.885,24.601,11.664,37.585,11.663
			c21.234-0.001,42.128-10.11,55.022-28.904c15.634-22.789,15.392-52.725,0.071-75.173l82.655-95.165l83.289,94.733
			c-15.201,22.527-15.284,52.462,0.469,75.167c10.143,14.617,25.37,24.411,42.878,27.576c4,0.722,8.007,1.08,11.988,1.08
			c11.021,0,21.819-2.744,31.567-8.045c8.82,7.725,29.239,19.516,71.771,19.56c0.008,0,0.017,0,0.025,0
			c11.299,0,21.284-8.014,23.75-19.088C492.254,485.913,490.657,478.631,486.314,472.931z M125.058,391.222
			c-2.743,3.158-2.757,7.851-0.031,11.026c14.654,17.075,16.01,41.942,3.294,60.476c-15.516,22.613-46.537,28.39-69.15,12.874
			c-22.614-15.515-28.39-46.537-12.875-69.15c13-18.948,37.095-26.483,58.597-18.329c3.537,1.34,7.532,0.164,9.779-2.878
			l70.673-95.754l3.956,7.736c1.52,2.973,4.651,4.767,7.981,4.582l5.716-0.319L125.058,391.222z M474.222,489.266
			c-0.757,3.398-3.817,5.861-7.277,5.861c-0.002,0-0.006,0-0.008,0c-32.794-0.034-49.715-7.706-57.531-13.054
			c3.175-3.014,6.023-6.312,8.519-9.853c17.942,5.389,36.366,7.315,49.263,7.952c2.267,0.112,4.348,1.199,5.707,2.983
			C473.672,484.176,474.878,486.322,474.222,489.266z"/>
	</g>
</g>
<g>
</g>
<g>
</g>
<g>
</g>
<g>
</g>
<g>
</g>
<g>
</g>
<g>
</g>
<g>
</g>
<g>
</g>
<g>
</g>
<g>
</g>
<g>
</g>
<g>
</g>
<g>
</g>
<g>
</g>
</svg>
