<?xml version="1.0" encoding="iso-8859-1"?>
<!-- Generator: Adobe Illustrator 19.0.0, SVG Export Plug-In . SVG Version: 6.00 Build 0)  -->
<svg version="1.1" id="Capa_1" xmlns="http://www.w3.org/2000/svg" xmlns:xlink="http://www.w3.org/1999/xlink" x="0px" y="0px"
	 viewBox="0 0 436.833 436.833" style="enable-background:new 0 0 436.833 436.833;" xml:space="preserve">
<g>
	<g>
		<path d="M302.47,371.393c-3.601-2.563-8.597-1.721-11.16,1.88c-2.563,3.601-1.721,8.597,1.88,11.16c3.92,2.88,4.88,4.88,4.96,5.28
			c-0.421,0.684-0.996,1.259-1.68,1.68c-0.823,0.11-1.657,0.11-2.48,0c-6.08,0-12.08-8-18.56-16
			c-3.281-4.382-6.807-8.575-10.56-12.56c-5.227-5.499-12.493-8.597-20.08-8.56c-6.245,0.153-12.362,1.799-17.84,4.8
			c-5.478-3.001-11.595-4.647-17.84-4.8c-7.587-0.037-14.853,3.061-20.08,8.56c-3.71,4.091-7.182,8.392-10.4,12.88
			c-6.4,8-12.48,16-18.56,16c-0.823,0.111-1.657,0.111-2.48,0c-0.66-0.417-1.231-0.961-1.68-1.6c0-0.48,1.04-2.48,4.96-5.36
			c3.601-2.563,4.443-7.559,1.88-11.16c-2.563-3.601-7.559-4.443-11.16-1.88c-1.84,1.28-18.32,12.96-17.6,29.6
			c0.4,10.56,7.44,19.84,20.96,27.52c8.394,5.049,17.966,7.807,27.76,8c16.544-0.774,32.265-7.443,44.32-18.8
			c12.082,11.293,27.798,17.903,44.32,18.64c9.794-0.193,19.366-2.951,27.76-8c13.52-8,20.56-16.96,20.96-27.52
			C320.79,384.353,304.39,372.673,302.47,371.393z M291.27,414.673L291.27,414.673c-6.018,3.54-12.858,5.443-19.84,5.52
			c-21.52,0-38.16-18.88-38.24-19.04c-1.568-1.712-3.759-2.721-6.08-2.8c-2.339,0-4.56,1.023-6.08,2.8c0,0-16.72,19.04-38.32,19.04
			c-7.063-0.035-13.991-1.939-20.08-5.52c-3.862-2.037-7.329-4.746-10.24-8c2.412,0.737,4.918,1.114,7.44,1.12
			c13.92,0,22.64-11.36,31.2-22.32c2.914-3.9,6.039-7.639,9.36-11.2c2.2-2.445,5.352-3.817,8.64-3.76
			c4.705,0.306,9.239,1.882,13.12,4.56c2.828,2.094,6.692,2.094,9.52,0c3.861-2.657,8.364-4.232,13.04-4.56
			c3.289-0.057,6.44,1.315,8.64,3.76c3.323,3.559,6.448,7.298,9.36,11.2c8.48,10.96,17.28,22.32,31.2,22.32
			c2.521-0.011,5.027-0.388,7.44-1.12C298.487,409.912,295.075,412.62,291.27,414.673z"/>
	</g>
</g>
<g>
	<g>
		<path d="M394.95,84.513c-0.449-3.509-3.149-6.307-6.64-6.88c-3.46-0.256-6.691,1.747-8,4.96c-8,19.04-18.64,24.48-27.12,25.36
			c18.8-59.76-22.08-92.48-40-103.36c-2.35-1.492-4.78-2.854-7.28-4.08h-0.8c-0.694-0.259-1.421-0.421-2.16-0.48h-1.28
			c-0.452-0.044-0.908-0.044-1.36,0h-0.64h-0.56l-0.48,1.04c-0.558,0.362-1.068,0.792-1.52,1.28l-0.8,1.04
			c-0.378,0.569-0.674,1.188-0.88,1.84c-0.015,0.266-0.015,0.534,0,0.8c-7.44,32-35.68,47.12-88.96,47.12
			c-12.48,0-24-0.8-34.88-1.44c-8-0.48-14.8-0.96-20.32-0.96c-33.68,0-50,32.56-54.72,44c-28.32,9.6-45.92,26.32-53.92,49.52
			c-20.08,61.44,41.28,146.16,43.92,149.76c0.676,0.855,1.52,1.563,2.48,2.08h0.72c1.005,0.458,2.095,0.704,3.2,0.72
			c0.986-0.008,1.963-0.197,2.88-0.56c0.612-0.321,1.178-0.725,1.68-1.2h0.56c0.703-0.69,1.273-1.503,1.68-2.4c0,0,0-0.48,0-0.8
			c0.245-0.643,0.407-1.315,0.48-2c-0.005-0.827-0.005-1.653,0-2.48c-5.28-21.04,15.28-67.92,24-88c1.76-4.08,3.2-7.36,4.16-9.76
			c3.122-9.046,4.849-18.514,5.12-28.08c27.813,22.504,62.803,34.234,98.56,33.04c5.84,0,11.6,0,17.2,0c5.6,0,10.24,0,15.2,0
			c32.8,0,54.88,50.96,55.12,51.44c1.708,4.075,6.396,5.993,10.471,4.285c0.45-0.188,0.881-0.418,1.289-0.685
			C419.35,192.433,395.35,85.553,394.95,84.513z M300.79,72.593v-0.08c4.076-4.771,7.345-10.176,9.68-16
			c0.777,14.106-1.973,28.183-8,40.96c-9.839,17.87-26.991,30.551-46.96,34.72c-45.39,12.344-93.942,2.658-131.12-26.16
			c13.2,1.28,31.44,2.64,51.52,2.64C221.19,108.513,275.67,101.713,300.79,72.593z M150.87,66.673v-0.08c4.96,0,11.6,0.4,19.28,0.96
			c10.72,0.72,22.96,1.52,35.92,1.52c18.56,0,68.32,0,92.88-33.44c-0.249,9.745-3.868,19.103-10.24,26.48
			c-33.68,39.04-137.2,30.8-171.6,26.8C123.751,76.152,136.524,67.737,150.87,66.673z M57.83,149.233
			c4.72-14.095,14.771-25.782,28-32.56c-14.981,37.187-20.159,77.598-15.04,117.36C58.63,207.713,49.35,175.313,57.83,149.233z
			 M330.63,230.353c-9.04-16.96-32-52.32-65.6-52.32c-5.12,0-10.32,0-16,0c-34,1.04-72.56,2.16-117.76-40
			c-3.233-3.012-8.295-2.833-11.307,0.399c-1.49,1.599-2.261,3.739-2.133,5.921c0.865,13.124-0.515,26.3-4.08,38.96
			c-0.88,2.24-2.24,5.36-4,9.28c-8.173,17.836-15.149,36.196-20.88,54.96c-8.922-46.037-2.983-93.718,16.96-136.16
			c30.576,26.861,69.707,41.975,110.4,42.64c14.678-0.039,29.286-2.03,43.44-5.92c24.387-5.277,45.234-20.979,57.04-42.96
			c10.069-22.43,12.677-47.498,7.44-71.52c14.08,15.36,26.08,40.8,10.72,78.4c-1.657,4.096,0.32,8.759,4.416,10.416
			c0.127,0.051,0.255,0.099,0.384,0.144c3.549,1.093,7.246,1.633,10.96,1.6c12.333-0.105,24.011-5.565,32-14.96
			C384.47,139.153,379.83,193.633,330.63,230.353z"/>
	</g>
</g>
<g>
</g>
<g>
</g>
<g>
</g>
<g>
</g>
<g>
</g>
<g>
</g>
<g>
</g>
<g>
</g>
<g>
</g>
<g>
</g>
<g>
</g>
<g>
</g>
<g>
</g>
<g>
</g>
<g>
</g>
</svg>
