<?xml version="1.0" encoding="iso-8859-1"?>
<!-- Generator: Adobe Illustrator 19.0.0, SVG Export Plug-In . SVG Version: 6.00 Build 0)  -->
<svg version="1.1" id="Layer_1" xmlns="http://www.w3.org/2000/svg" xmlns:xlink="http://www.w3.org/1999/xlink" x="0px" y="0px"
	 viewBox="0 0 512.001 512.001" style="enable-background:new 0 0 512.001 512.001;" xml:space="preserve">
<g>
	<g>
		<path d="M507.835,62.497l-22.513-13.855c-3.38-2.082-7.74-1.627-10.617,1.11l-12.32,11.71
			c-11.444,10.877-27.239,15.333-42.429,12.298c-0.376-10.301-3.661-20.417-9.625-29.06c-8.804-12.759-22.664-21.243-38.029-23.277
			c-28.054-3.712-54.121,14.345-60.651,42.004c-3.883,16.448-8.336,32.74-13.317,48.859h-3.465c-18.685,0-36.338,7.188-49.71,20.241
			c-10.082,9.841-23.391,15.261-37.48,15.261H26.252c-11.65-23.847-11.635-51.354-0.014-75.145h253.853
			c4.835,0,8.753-3.919,8.753-8.753s-3.918-8.753-8.753-8.753H20.949c-3.164,0-6.081,1.707-7.63,4.465
			c-17.476,31.1-17.77,68.397-0.789,99.77l0.722,1.335c1.531,2.825,4.485,4.585,7.698,4.585h186.731
			c18.685,0,36.338-7.188,49.709-20.241c9.554-9.327,22.01-14.673,35.277-15.208c-33.735,100.347-88.582,193.274-160.851,271.759
			c-14.658,15.919-14.73,39.955-0.169,55.91l18.302,20.054c7.785,8.531,18.876,13.449,30.427,13.493c0.052,0,0.103,0,0.154,0
			c11.447,0,22.456-4.8,30.223-13.184c92.003-99.311,159.538-218.925,196.888-348.084h28.819c35.108,0,66.046-23.665,75.235-57.549
			C512.71,68.498,511.14,64.531,507.835,62.497z M402.329,79.224c-0.015,0.11-0.023,0.219-0.034,0.33
			c-0.167,1.535-0.418,3.072-0.778,4.605C368.076,226.267,297.67,358.298,197.912,465.979c-4.528,4.887-10.696,7.576-17.377,7.575
			c-0.03,0-0.063,0-0.093,0c-6.766-0.026-13.004-2.792-17.563-7.787l-18.302-20.054c-8.394-9.198-8.344-23.065,0.117-32.253
			c90.01-97.752,153.634-217.402,183.996-346.012c4.066-17.229,19.218-29.001,36.355-29.001c1.636,0,3.293,0.107,4.96,0.328
			c10.472,1.386,19.917,7.17,25.918,15.865C400.99,61.986,403.191,70.563,402.329,79.224z M436.461,112.287h-23.969
			c1.867-7.011,3.646-14.05,5.334-21.111c20.333,3.647,41.326-2.488,56.62-17.024l7.438-7.07l10.898,6.707
			C483.828,96.746,461.514,112.287,436.461,112.287z"/>
	</g>
</g>
<g>
	<g>
		<circle cx="164.956" cy="429.447" r="9.741"/>
	</g>
</g>
<g>
</g>
<g>
</g>
<g>
</g>
<g>
</g>
<g>
</g>
<g>
</g>
<g>
</g>
<g>
</g>
<g>
</g>
<g>
</g>
<g>
</g>
<g>
</g>
<g>
</g>
<g>
</g>
<g>
</g>
</svg>
